<?xml version="1.0" standalone="no"?>
<!DOCTYPE svg PUBLIC "-//W3C//DTD SVG 20010904//EN"
 "http://www.w3.org/TR/2001/REC-SVG-20010904/DTD/svg10.dtd">
<svg version="1.0" xmlns="http://www.w3.org/2000/svg"
 width="200.000000pt" height="200.000000pt" viewBox="0 0 200.000000 200.000000"
 preserveAspectRatio="xMidYMid meet">

<g transform="translate(0.000000,200.000000) scale(0.100000,-0.100000)"
fill="#9ba0a8" stroke="none">
<path d="M911 1661 c-69 -119 -214 -371 -324 -560 -109 -188 -201 -349 -204
-357 -4 -12 60 -14 419 -14 l425 0 11 -25 12 -25 -453 0 c-441 0 -452 0 -465
-20 -12 -20 -10 -20 464 -20 442 0 478 -1 490 -17 7 -10 14 -21 14 -25 0 -5
-227 -8 -505 -8 -488 0 -505 -1 -515 -19 -5 -11 -10 -22 -10 -25 0 -3 240 -6
534 -6 563 0 546 1 546 -41 0 -5 -226 -9 -559 -9 -500 0 -559 -2 -565 -16 -3
-9 -6 -18 -6 -20 0 -2 263 -4 583 -4 l584 0 11 -25 12 -25 -613 0 c-601 0
-612 0 -625 -20 -12 -20 -10 -20 648 -20 363 0 660 2 660 5 0 3 -92 166 -205
362 -113 195 -205 361 -205 367 0 7 6 20 13 29 10 15 42 -34 237 -373 192
-334 228 -390 247 -390 13 0 23 2 23 5 0 2 -75 134 -166 292 -330 570 -304
521 -292 549 6 13 14 24 17 24 3 0 37 -56 75 -123 37 -67 150 -263 249 -435
156 -270 184 -312 204 -312 29 0 47 -34 -199 390 -309 534 -301 518 -294 545
4 14 10 25 15 25 5 0 30 -37 56 -82 421 -734 508 -878 532 -878 l24 0 -32 58
c-18 31 -135 233 -259 447 -124 215 -241 416 -259 447 -29 53 -31 59 -18 84
13 25 19 16 264 -408 138 -238 275 -476 305 -528 45 -79 58 -96 81 -98 25 -3
16 16 -162 325 -376 653 -466 806 -476 803 -8 -1 -95 -148 -414 -698 -4 -8
-20 -12 -35 -10 -27 3 -24 9 197 389 202 349 223 389 212 409 -13 24 -43 -25
-400 -647 -82 -143 -90 -153 -117 -153 l-30 0 20 33 c11 17 48 82 82 142 35
61 139 241 232 402 126 216 168 298 163 313 -3 11 -10 20 -14 20 -3 0 -107
-174 -230 -387 -123 -214 -241 -418 -263 -455 -34 -59 -43 -68 -68 -68 -28 0
-27 3 160 328 103 180 228 397 278 482 77 133 88 157 79 177 -9 21 -11 22 -22
5 -7 -9 -133 -226 -280 -482 -147 -256 -275 -475 -283 -487 -9 -15 -24 -23
-42 -23 -28 0 -27 3 109 238 317 546 471 816 471 828 0 6 -6 16 -12 22 -10 7
-43 -43 -137 -207z m204 -743 c39 -66 72 -125 73 -130 2 -4 -64 -8 -147 -8
-83 0 -151 2 -151 5 0 9 145 255 150 255 3 0 37 -55 75 -122z"/>
</g>
</svg>
